<svg xmlns="http://www.w3.org/2000/svg" width="26" height="26" fill="none"><path fill="url(#a)" d="M18.135.315H8.76A7.813 7.813 0 0 0 .948 8.127v9.375a7.813 7.813 0 0 0 7.812 7.813h9.375a7.813 7.813 0 0 0 7.813-7.813V8.127A7.813 7.813 0 0 0 18.135.315Zm5.469 17.187a5.475 5.475 0 0 1-5.469 5.47H8.76a5.475 5.475 0 0 1-5.468-5.47V8.127A5.475 5.475 0 0 1 8.76 2.66h9.375a5.475 5.475 0 0 1 5.469 5.468v9.375Z"/><path fill="url(#b)" d="M13.448 6.565a6.25 6.25 0 1 0 0 12.5 6.25 6.25 0 0 0 0-12.5Zm0 10.156a3.912 3.912 0 0 1-3.907-3.906 3.91 3.91 0 0 1 3.907-3.906 3.91 3.91 0 0 1 3.906 3.906 3.912 3.912 0 0 1-3.906 3.906Z"/><path fill="url(#c)" d="M20.167 6.929a.833.833 0 1 0 0-1.666.833.833 0 0 0 0 1.666Z"/><defs><linearGradient id="a" x1="3.236" x2="23.659" y1="23.026" y2="2.603" gradientUnits="userSpaceOnUse"><stop stop-color="#FFC107"/><stop offset=".507" stop-color="#F44336"/><stop offset=".99" stop-color="#9C27B0"/></linearGradient><linearGradient id="b" x1="9.028" x2="17.867" y1="17.234" y2="8.396" gradientUnits="userSpaceOnUse"><stop stop-color="#FFC107"/><stop offset=".507" stop-color="#F44336"/><stop offset=".99" stop-color="#9C27B0"/></linearGradient><linearGradient id="c" x1="19.578" x2="20.755" y1="6.685" y2="5.507" gradientUnits="userSpaceOnUse"><stop stop-color="#FFC107"/><stop offset=".507" stop-color="#F44336"/><stop offset=".99" stop-color="#9C27B0"/></linearGradient></defs></svg>