<svg xmlns="http://www.w3.org/2000/svg" width="36" height="21" fill="none"><path fill="#1E88E5" d="M18.099 20.73h2.094s.634-.07.956-.418c.298-.32.287-.92.287-.92s-.042-2.811 1.264-3.225c1.286-.408 2.938 2.717 4.688 3.92 1.324.909 2.33.71 2.33.71l4.681-.066s2.45-.152 1.289-2.077c-.095-.158-.677-1.424-3.482-4.027-2.936-2.726-2.541-2.283.995-6.996 2.154-2.87 3.015-4.623 2.745-5.372-.256-.714-1.84-.526-1.84-.526l-5.267.03s-.39-.052-.682.121c-.282.171-.464.565-.464.565s-.835 2.222-1.948 4.11c-2.346 3.986-3.286 4.196-3.67 3.949-.891-.577-.668-2.318-.668-3.554 0-3.863.585-5.473-1.141-5.89-.574-.137-.995-.23-2.46-.245-1.88-.02-3.473.007-4.374.447-.6.294-1.062.949-.78.986.349.046 1.137.213 1.556.782.54.734.521 2.386.521 2.386s.311 4.547-.725 5.112c-.712.388-1.687-.403-3.78-4.02-1.07-1.852-1.881-3.9-1.881-3.9s-.156-.382-.434-.585c-.338-.248-.81-.327-.81-.327l-5.01.03s-.75.023-1.027.35c-.245.29-.02.89-.02.89s3.922 9.174 8.361 13.8c4.073 4.239 8.696 3.96 8.696 3.96Z"/></svg>